<svg width="84" height="83" viewBox="0 0 84 83" fill="none" xmlns="http://www.w3.org/2000/svg">
<g clip-path="url(#clip0_1_93)">
<path d="M79.3494 82.9658C78.267 82.9621 77.3306 82.5903 76.5404 81.8505L41.7993 49.1542L8.60734 81.3961C8.31605 81.6701 7.99182 81.897 7.63464 82.0768C7.27745 82.2567 6.90207 82.382 6.50848 82.4528C6.1149 82.5236 5.71937 82.537 5.3219 82.493C4.92443 82.4489 4.54144 82.3492 4.17291 82.1939C3.80439 82.0387 3.46556 81.8342 3.15642 81.5805C2.84728 81.3268 2.58061 81.0344 2.35639 80.7033C2.13218 80.3721 1.95969 80.0159 1.83891 79.6347C1.71814 79.2535 1.65408 78.863 1.64673 78.4631V-4.42391C1.64673 -4.69515 1.67319 -4.96379 1.7261 -5.22982C1.77902 -5.49585 1.85738 -5.75416 1.96118 -6.00475C2.06498 -6.25534 2.19222 -6.49341 2.34291 -6.71893C2.49361 -6.94446 2.66485 -7.15312 2.85665 -7.34492C3.04844 -7.53672 3.25711 -7.70796 3.48263 -7.85865C3.70816 -8.00935 3.94622 -8.13659 4.19682 -8.24039C4.44741 -8.34419 4.70572 -8.42255 4.97175 -8.47547C5.23778 -8.52838 5.50641 -8.55484 5.77765 -8.55484H79.3494C79.6207 -8.55484 79.8893 -8.52838 80.1553 -8.47547C80.4214 -8.42255 80.6797 -8.34419 80.9303 -8.24039C81.1809 -8.13659 81.4189 -8.00935 81.6444 -7.85865C81.87 -7.70796 82.0786 -7.53672 82.2704 -7.34492C82.4622 -7.15312 82.6335 -6.94446 82.7842 -6.71893C82.9349 -6.49341 83.0621 -6.25535 83.1659 -6.00475C83.2697 -5.75416 83.3481 -5.49585 83.401 -5.22982C83.4539 -4.96379 83.4804 -4.69516 83.4804 -4.42391V78.8555C83.4798 79.2569 83.4219 79.6498 83.3067 80.0343C83.1916 80.4188 83.024 80.7789 82.8039 81.1145C82.5838 81.4501 82.3204 81.7474 82.0137 82.0062C81.7069 82.2651 81.3697 82.4748 81.0018 82.6353C80.474 82.8603 79.9232 82.9704 79.3494 82.9658ZM41.758 39.3639C42.8405 39.3676 43.7768 39.7394 44.567 40.4793L75.2598 69.3957V-0.292989H9.90858V68.7554L38.8251 40.5206C39.6435 39.7314 40.6212 39.3458 41.758 39.3639Z" fill="#8C2228"/>
</g>
<defs>
<clipPath id="clip0_1_93">
<rect width="82.5" height="82.2" fill="white" transform="translate(0.93335 0.700012)"/>
</clipPath>
</defs>
</svg>
